<?xml version="1.0" encoding="utf-8"?>
<!-- Generator: Adobe Illustrator 24.2.3, SVG Export Plug-In . SVG Version: 6.00 Build 0)  -->
<svg version="1.1" id="lni_lni-facebook-original" xmlns="http://www.w3.org/2000/svg" xmlns:xlink="http://www.w3.org/1999/xlink"
	 x="0px" y="0px" viewBox="0 0 52 52" style="enable-background:new 0 0 52 52;" xml:space="preserve">
<style type="text/css">
	.st0{fill:#FFFFFF;stroke:#000000;stroke-miterlimit:10;}
</style>
<path class="st0" d="M48.3,0.8H3.7C2,0.8,0.8,2.1,0.8,3.7v44.7c0,1.6,1.3,2.8,2.8,2.8h24V31.6h-6.5v-7.6h6.5v-5.6
	c0-6.5,3.9-10.1,9.8-10.1c2,0,3.9,0.1,5.8,0.3v6.7h-3.9c-3.1,0-3.7,1.5-3.7,3.7v4.8h7.4L42,31.5h-6.5v19.3h12.8
	c1.6,0,2.8-1.2,2.8-2.8V3.7C51.1,2,49.8,0.8,48.3,0.8z"/>
</svg>
