<?xml version="1.0" encoding="utf-8"?>
<!-- Generator: Adobe Illustrator 24.2.3, SVG Export Plug-In . SVG Version: 6.00 Build 0)  -->
<svg version="1.1" id="lni_lni-instagram-filled" xmlns="http://www.w3.org/2000/svg" xmlns:xlink="http://www.w3.org/1999/xlink"
	 x="0px" y="0px" viewBox="0 0 52 52" style="enable-background:new 0 0 52 52;" xml:space="preserve">
<style type="text/css">
	.st0{fill:#FFFFFF;stroke:#000000;stroke-miterlimit:10;}
</style>
<g>
	<ellipse class="st0" cx="26.1" cy="26" rx="9.4" ry="9.4"/>
	<path class="st0" d="M36.3,0.8H15.7C7.5,0.8,0.8,7.5,0.8,15.7v20.5c0,8.4,6.7,15,14.9,15h20.5c8.4,0,15-6.7,15-14.9V15.7
		C51.2,7.5,44.5,0.8,36.3,0.8z M26.1,38.4c-6.9,0-12.4-5.6-12.4-12.4s5.5-12.4,12.4-12.4c6.7,0,12.3,5.6,12.3,12.4
		S32.9,38.4,26.1,38.4z M43.1,14.8c-0.8,0.9-2,1.4-3.4,1.4c-1.2,0-2.4-0.5-3.4-1.4c-0.9-0.9-1.4-2-1.4-3.4s0.5-2.4,1.4-3.4
		c0.9-1,2-1.5,3.4-1.5c1.2,0,2.5,0.5,3.4,1.4c0.8,1.1,1.4,2.3,1.4,3.6C44.4,12.8,44,13.9,43.1,14.8z"/>
	<path class="st0" d="M39.8,9.4c-1.1,0-2,0.9-2,1.9s0.9,1.9,2,1.9c1.1,0,2-0.9,2-1.9S41,9.4,39.8,9.4z"/>
</g>
</svg>
