<?xml version="1.0" encoding="utf-8"?>
<!-- Generator: Adobe Illustrator 24.2.3, SVG Export Plug-In . SVG Version: 6.00 Build 0)  -->
<svg version="1.1" id="lni_lni-twitter-original" xmlns="http://www.w3.org/2000/svg" xmlns:xlink="http://www.w3.org/1999/xlink"
	 x="0px" y="0px" viewBox="0 0 52 52" style="enable-background:new 0 0 52 52;" xml:space="preserve">
<style type="text/css">
	.st0{fill:#F9F4F4;stroke:#000000;stroke-miterlimit:10;}
</style>
<path class="st0" d="M16.5,46.6c19.2,0,29.6-15.8,29.6-29.6c0-0.3,0-0.9-0.1-1.4c2-1.5,3.8-3.3,5.2-5.4c-2,0.9-3.9,1.4-5.9,1.6
	c2.2-1.3,3.8-3.3,4.5-5.8c-2,1.1-4.1,2-6.7,2.5c-2-2-4.5-3.3-7.6-3.3c-5.8,0-10.5,4.7-10.5,10.5c0,0.8,0.1,1.6,0.2,2.4
	c-8.4-0.6-16-4.7-21.2-11c-0.9,1.6-1.4,3.3-1.4,5.2c0,3.7,1.9,6.7,4.7,8.6c-1.7-0.1-3.3-0.6-4.7-1.3c0,0.1,0,0.1,0,0.1
	c0,5,3.6,9.3,8.3,10.2c-0.9,0.2-1.9,0.3-2.6,0.3c-0.7,0-1.4-0.1-2-0.2c1.4,4.1,5.2,7.1,9.8,7.2c-3.6,2.8-8,4.5-12.8,4.5
	c-1,0.2-1.8,0-2.6-0.1C5.2,44.9,10.6,46.6,16.5,46.6"/>
</svg>
